<?xml version="1.0" encoding="UTF-8"?>
<svg version="1.1" xmlns="http://www.w3.org/2000/svg" width="500" height="500">
<path d="M0 0 C6.12552834 0.06679965 6.12552834 0.06679965 8.51171875 1.9609375 C9.8253439 4.09939705 10.78815718 6.24449565 11.75 8.5625 C12.64817376 10.28062818 13.56617201 11.98848681 14.5 13.6875 C15.00789063 14.62980469 15.51578125 15.57210937 16.0390625 16.54296875 C18.21102054 20.37612757 20.59906182 24.04748207 23.00854492 27.73461914 C26.95549502 33.80779003 30.66234985 40.01828566 34.37084961 46.23901367 C37.1846969 50.95784052 40.0303413 55.65062201 42.9375 60.3125 C45.78702347 64.90926214 48.44850617 69.58045696 51.0625 74.3125 C54.5722199 80.64985214 58.38398637 86.72062464 62.37109375 92.76660156 C66.87344151 99.64206179 71.03373648 106.70637618 75.15917969 113.81298828 C78.10491188 118.86719566 81.18419184 123.77375466 84.46166992 128.61914062 C85.95227022 130.86761104 87.2551558 133.16981244 88.5 135.5625 C94.1213565 146.04398765 100.11552736 156.29355186 106.8125 166.125 C111.07277828 172.38631807 114.8186481 178.84162977 118.4765625 185.46875 C125.04578218 197.36513395 132.16856151 208.95109332 139.28125 220.52734375 C141.22060034 223.68682 143.11989817 226.86732695 145 230.0625 C147.5566425 234.37589977 150.44408217 238.4075502 153.4296875 242.43359375 C154.75 244.5625 154.75 244.5625 154.75 247.5625 C155.41 247.5625 156.07 247.5625 156.75 247.5625 C158.20909711 250.31209541 159.66714242 253.06224721 161.125 255.8125 C161.5375 256.58980469 161.95 257.36710937 162.375 258.16796875 C162.77460938 258.92207031 163.17421875 259.67617188 163.5859375 260.453125 C163.95251465 261.14438477 164.3190918 261.83564453 164.69677734 262.54785156 C165.04434082 263.21268555 165.3919043 263.87751953 165.75 264.5625 C166.30228271 265.60035645 166.30228271 265.60035645 166.86572266 266.65917969 C168.02171423 269.14733824 168.09780082 270.8496536 167.75 273.5625 C166.09322438 275.79846672 165.1308652 276.48391255 162.38197327 277.05111694 C161.44776047 277.101763 160.51354767 277.15240906 159.55102539 277.20458984 C158.48884293 277.26568939 157.42666046 277.32678894 156.33229065 277.38973999 C151.45006563 277.57705988 146.56916775 277.73244197 141.68432617 277.83251953 C139.11783444 277.90210724 136.55208734 278.01105962 133.98901367 278.16064453 C113.31575105 279.35433418 113.31575105 279.35433418 107.44207764 274.75549316 C103.58411621 270.31794837 101.1011245 265.36512388 98.8354187 259.97393799 C97.41656384 256.82171618 95.60696943 254.02378098 93.68348694 251.15927124 C92.75 249.5625 92.75 249.5625 92.75 247.5625 C92.09 247.5625 91.43 247.5625 90.75 247.5625 C90.4096875 246.84707031 90.069375 246.13164062 89.71875 245.39453125 C85.86094187 237.4634523 81.46927092 230.0078094 76.75 222.5625 C75.83229218 221.10482162 74.91545492 219.6465943 74 218.1875 C73.61714844 217.5790625 73.23429687 216.970625 72.83984375 216.34375 C71.70085744 214.48218098 70.62792411 212.59199438 69.5625 210.6875 C67.93923523 207.58046779 67.93923523 207.58046779 65.75 205.5625 C65.75 204.5725 65.75 203.5825 65.75 202.5625 C65.09 202.5625 64.43 202.5625 63.75 202.5625 C63.27949219 201.67046875 62.80898437 200.7784375 62.32421875 199.859375 C61.69548973 198.67698908 61.06657357 197.49470265 60.4375 196.3125 C59.82261719 195.15234375 59.20773438 193.9921875 58.57421875 192.796875 C56.89756179 189.64154072 56.89756179 189.64154072 55.01953125 187.328125 C53.75 185.5625 53.75 185.5625 53.75 182.5625 C53.09 182.5625 52.43 182.5625 51.75 182.5625 C51.31171875 181.70011719 50.8734375 180.83773437 50.421875 179.94921875 C45.18500579 169.81247865 39.22550405 160.23676805 33.06982422 150.63720703 C30.54245785 146.66429556 28.1408944 142.61834066 25.75 138.5625 C25.21890625 137.70011719 24.6878125 136.83773437 24.140625 135.94921875 C22.86421157 133.75852043 22.2079311 132.03532793 21.75 129.5625 C21.09 129.5625 20.43 129.5625 19.75 129.5625 C17.70830515 126.65701118 16.75 125.16107954 16.75 121.5625 C16.09 121.5625 15.43 121.5625 14.75 121.5625 C14.50507813 121.02625 14.26015625 120.49 14.0078125 119.9375 C10.98584799 113.6017951 7.44430734 107.70522705 3.66845703 101.80078125 C2.84869153 100.51533658 2.04182369 99.22158087 1.24768066 97.92015076 C-0.23675975 95.51911599 -0.23675975 95.51911599 -2.01919556 93.18617249 C-8.45675074 83.80741644 -8.18287332 75.4157829 -7.96875 64.48828125 C-7.95820989 62.6693821 -7.95065206 60.85046346 -7.94592285 59.03153992 C-7.92503332 54.28191831 -7.86127412 49.53380653 -7.78894043 44.784729 C-7.73680424 40.88897912 -7.71505326 36.99332978 -7.69481659 33.09730244 C-7.65270701 25.06896864 -7.59173425 17.04055014 -7.47460938 9.01293945 C-7.46720734 8.26862671 -7.4598053 7.52431396 -7.45217896 6.75744629 C-7.34062358 0.21415164 -6.44041724 0.33934934 0 0 Z " fill="#F5F5F5" transform="translate(192.25,109.4375)"/>
<path d="M0 0 C0.73053085 -0.00287018 1.46106171 -0.00574036 2.21372986 -0.00869751 C3.74739362 -0.01072594 5.28108398 -0.00528215 6.81469727 0.00732422 C9.14984354 0.02342027 11.48326557 0.00742337 13.81835938 -0.01171875 C15.31641003 -0.00973655 16.81445962 -0.00589336 18.3125 0 C19.0032814 -0.00607269 19.69406281 -0.01214539 20.40577698 -0.0184021 C25.02976497 0.04808629 28.29632964 0.71263637 32.08984375 3.3984375 C35.32163597 9.22855478 35.51651697 14.25351859 35.47079468 20.82920837 C35.47781464 22.38554649 35.47781464 22.38554649 35.48497641 23.97332579 C35.4969236 27.44320409 35.48746994 30.91268726 35.47802734 34.38256836 C35.48209318 36.8730543 35.48743512 39.36353844 35.49395752 41.85401917 C35.50621598 47.91243897 35.504423 53.97070424 35.4957196 60.02911799 C35.48893754 64.95452122 35.48802859 69.8798932 35.49129105 74.80529976 C35.49175075 75.5069833 35.49221044 76.20866684 35.49268407 76.93161352 C35.49364328 78.35719494 35.49461592 79.78277636 35.49560185 81.20835776 C35.50415198 94.56928947 35.49432787 107.93015938 35.47820075 121.29108096 C35.46480083 132.74706344 35.46712368 144.20295471 35.48095703 155.65893555 C35.49702457 168.97132273 35.50332496 182.28365575 35.49412024 195.59605128 C35.49316462 197.01662067 35.49222151 198.43719007 35.49129105 199.85775948 C35.49082822 200.55665287 35.49036539 201.25554627 35.48988854 201.97561825 C35.48730195 206.89268859 35.49166256 211.80972448 35.49872971 216.72678947 C35.50803973 223.34979826 35.501377 229.9726617 35.48404694 236.59566307 C35.48008202 239.02565475 35.4812162 241.45566092 35.48783493 243.88564682 C35.49604008 247.20418742 35.48574053 250.5221774 35.47079468 253.84068298 C35.48083293 255.28101793 35.48083293 255.28101793 35.49107397 256.75045055 C35.43607707 263.05204335 34.87688967 269.02087612 30.69655645 274.0869326 C28.05500937 276.24313759 24.92695141 275.97982479 21.65234375 276.0859375 C20.57980347 276.13500244 20.57980347 276.13500244 19.4855957 276.18505859 C17.35381716 276.27510355 15.22274968 276.34182522 13.08984375 276.3984375 C11.43855469 276.44291016 11.43855469 276.44291016 9.75390625 276.48828125 C-8.11349585 276.69931356 -8.11349585 276.69931356 -13.91015625 273.3984375 C-13.91015625 272.7384375 -13.91015625 272.0784375 -13.91015625 271.3984375 C-14.57015625 271.3984375 -15.23015625 271.3984375 -15.91015625 271.3984375 C-17.08723654 264.94957897 -17.26803087 258.60062371 -17.46435547 252.05908203 C-17.48531776 251.37555609 -17.50628006 250.69203015 -17.52787757 249.9877913 C-18.14198297 229.40072186 -18.05661985 208.8038475 -18.04448175 188.209764 C-18.04190633 182.45357311 -18.04430926 176.69738361 -18.04586792 170.94119263 C-18.04767213 161.30470487 -18.04532696 151.66822486 -18.04052734 142.03173828 C-18.03506014 130.92735108 -18.03687216 119.82298217 -18.04235375 108.71859539 C-18.04690182 99.11611077 -18.04752797 89.51363163 -18.04491508 79.91114628 C-18.04336519 74.20466571 -18.04312349 68.49819372 -18.04645157 62.79171371 C-18.04935602 57.44142045 -18.04730763 52.09115073 -18.04155731 46.74085999 C-18.04024467 44.78906925 -18.04059813 42.83727651 -18.04281998 40.8854866 C-18.07381677 10.87410739 -18.07381677 10.87410739 -14.91015625 3.3984375 C-10.00891079 0.50195165 -5.6667778 -0.04996333 0 0 Z " fill="#F4F4F4" transform="translate(136.91015625,109.6015625)"/>
<path d="M0 0 C0.84858582 -0.00807175 1.69717163 -0.01614349 2.57147217 -0.02445984 C4.37038122 -0.03830316 6.16931657 -0.04902421 7.96826172 -0.05688477 C10.70982228 -0.07406489 13.45016656 -0.11794359 16.19140625 -0.16210938 C17.94009531 -0.17223936 19.68879461 -0.1807545 21.4375 -0.1875 C22.66125336 -0.21376213 22.66125336 -0.21376213 23.909729 -0.24055481 C29.18107324 -0.22062761 32.43569152 0.53200208 36.484375 4.23828125 C37.9551527 8.89278426 37.62040853 13.8529805 37.60462952 18.68513489 C37.60548394 19.64087471 37.60633837 20.59661454 37.60721868 21.58131617 C37.60886659 24.78575651 37.60336334 27.99014456 37.59790039 31.19458008 C37.59761834 33.49085489 37.59777659 35.78712979 37.5983429 38.08340454 C37.59863019 44.32052073 37.59274439 50.55761774 37.58576894 56.79472947 C37.57952413 63.31169427 37.57893071 69.8286595 37.57774353 76.34562683 C37.57498705 87.28502749 37.56873782 98.22442106 37.55981445 109.16381836 C37.55063348 120.43074508 37.543556 131.6976699 37.53930664 142.96459961 C37.53904392 143.65925596 37.53878119 144.35391231 37.53851051 145.06961886 C37.53720546 148.55455428 37.53594175 152.03948971 37.53469861 155.52442515 C37.52433425 184.42904851 37.50664873 213.33366471 37.484375 242.23828125 C30.38411544 239.87152806 26.54704483 228.60079866 23.140625 222.25 C18.02663332 212.95073683 12.43452362 203.94811194 6.40625 195.21484375 C4.41630099 192.13284955 2.65257854 188.98212117 0.88964844 185.76708984 C-1.73818374 181.03827023 -4.51069693 176.39380015 -7.265625 171.73828125 C-8.14927734 170.2378125 -8.14927734 170.2378125 -9.05078125 168.70703125 C-9.61152344 167.75828125 -10.17226563 166.80953125 -10.75 165.83203125 C-11.25756836 164.97287109 -11.76513672 164.11371094 -12.28808594 163.22851562 C-13.3637818 161.31324591 -13.3637818 161.31324591 -14.515625 160.23828125 C-14.62111174 158.24789165 -14.65530396 156.25371268 -14.66279602 154.26054382 C-14.66995132 152.96075592 -14.67710663 151.66096802 -14.68447876 150.3217926 C-14.68731932 148.86776757 -14.69003102 147.41374228 -14.69262695 145.9597168 C-14.69888863 144.43898359 -14.70553516 142.91825193 -14.71253967 141.39752197 C-14.72997734 137.25488809 -14.74050899 133.11226577 -14.7487452 128.96960425 C-14.75388957 126.38338312 -14.75996556 123.79716562 -14.76625633 121.21094704 C-14.78531626 113.12501879 -14.79954559 105.03909972 -14.8078683 96.95315331 C-14.81764422 87.60866274 -14.84396952 78.26440884 -14.88436919 68.92000169 C-14.91449698 61.70469002 -14.929334 54.48944631 -14.93264931 47.27407295 C-14.93500369 42.96127676 -14.94401393 38.64873316 -14.96911049 34.33600426 C-14.99233802 30.27876006 -14.99664614 26.2219357 -14.98634911 22.16464233 C-14.98585232 20.67469196 -14.9922146 19.18472131 -15.00590515 17.69483376 C-15.02353842 15.66228868 -15.01416064 13.62956253 -15.00337219 11.5969696 C-15.00576055 10.45893229 -15.0081489 9.32089499 -15.01060963 8.1483717 C-14.40578205 4.59249773 -13.30011229 3.45187143 -10.515625 1.23828125 C-7.23746378 -0.40079936 -3.604806 0.03231874 0 0 Z " fill="#F9F9F9" transform="translate(323.515625,109.76171875)"/>
<path d="M0 0 C0.66 0.33 1.32 0.66 2 1 C2 77.89 2 154.78 2 234 C1.01 233.67 0.02 233.34 -1 233 C-2.1875 230.4375 -2.1875 230.4375 -3 228 C-1.68 228 -0.36 228 1 228 C0.75622037 226.30815456 0.75622037 226.30815456 0.50751591 224.58213043 C-0.06964498 219.93641237 -0.13661281 215.36232557 -0.12025452 210.68591309 C-0.12153615 209.32808771 -0.12153615 209.32808771 -0.12284368 207.94283152 C-0.12448312 204.92736196 -0.11900238 201.91194876 -0.11352539 198.89648438 C-0.11324316 196.72784425 -0.11340195 194.55920403 -0.1139679 192.39056396 C-0.11425447 186.51518362 -0.10838025 180.63982375 -0.10139394 174.76444817 C-0.09513721 168.61986266 -0.09455476 162.47527667 -0.09336853 156.33068848 C-0.09026206 144.70034672 -0.08205787 133.07001438 -0.07201904 121.43967676 C-0.06083668 108.1966973 -0.0553421 94.95371738 -0.05032361 81.71073437 C-0.0398747 54.47381769 -0.02228849 27.23690938 0 0 Z " fill="#8B8B8B" transform="translate(359,118)"/>
<path d="M0 0 C0.33 0 0.66 0 1 0 C1 33.33 1 66.66 1 101 C0.01 100.67 -0.98 100.34 -2 100 C-3.1875 97.4375 -3.1875 97.4375 -4 95 C-2.68 95 -1.36 95 0 95 C-0.24349686 93.29184364 -0.24349686 93.29184364 -0.49191284 91.54917908 C-1.04657937 87.08842586 -1.14114097 82.7036039 -1.12939453 78.21313477 C-1.13114685 77.37476578 -1.13289917 76.53639679 -1.13470459 75.67262268 C-1.13907123 72.92886222 -1.13620541 70.18516725 -1.1328125 67.44140625 C-1.13348659 65.5270944 -1.13445749 63.61278263 -1.13571167 61.69847107 C-1.13718122 57.70172301 -1.13505634 53.70499739 -1.13037109 49.70825195 C-1.12464713 44.57436897 -1.12797427 39.44053796 -1.13394356 34.30665684 C-1.13754621 30.36144107 -1.13641243 26.41623778 -1.13381577 22.47102165 C-1.13314707 20.57670015 -1.13397292 18.68237753 -1.13629532 16.78805733 C-1.13881989 14.15237518 -1.1349853 11.5167792 -1.12939453 8.88110352 C-1.13141876 8.09310364 -1.13344299 7.30510376 -1.13552856 6.4932251 C-1.11426832 1.11426832 -1.11426832 1.11426832 0 0 Z " fill="#858585" transform="translate(360,251)"/>
<path d="M0 0 C0.33 0 0.66 0 1 0 C1 13.2 1 26.4 1 40 C0.01 39.67 -0.98 39.34 -2 39 C-3.1875 36.4375 -3.1875 36.4375 -4 34 C-2.68 34 -1.36 34 0 34 C-0.16242188 32.93523437 -0.32484375 31.87046875 -0.4921875 30.7734375 C-1.20414662 25.06518574 -1.14578755 19.36929377 -1.125 13.625 C-1.12886719 12.53316406 -1.13273437 11.44132812 -1.13671875 10.31640625 C-1.13542969 9.27613281 -1.13414062 8.23585938 -1.1328125 7.1640625 C-1.13112061 5.74794678 -1.13112061 5.74794678 -1.12939453 4.30322266 C-1 2 -1 2 0 0 Z " fill="#828282" transform="translate(360,312)"/>
<path d="M0 0 C0.33 0 0.66 0 1 0 C1 2.64 1 5.28 1 8 C0.01 7.67 -0.98 7.34 -2 7 C-3.1875 4.4375 -3.1875 4.4375 -4 2 C-2.68 2 -1.36 2 0 2 C0 1.34 0 0.68 0 0 Z " fill="#747474" transform="translate(360,344)"/>
<path d="M0 0 C-0.804375 0.3403125 -0.804375 0.3403125 -1.625 0.6875 C-4.78500863 2.43382056 -7.2676983 4.6402849 -10 7 C-9.75 4.625 -9.75 4.625 -9 2 C-6.09557968 -0.17831524 -3.54875053 -0.19715281 0 0 Z " fill="#C1C1C1" transform="translate(131,111)"/>
<path d="M0 0 C0.66 0 1.32 0 2 0 C1.01 3.96 0.02 7.92 -1 12 C-1.33 12 -1.66 12 -2 12 C-2.05422947 10.5629191 -2.09289723 9.12524538 -2.125 7.6875 C-2.14820313 6.88699219 -2.17140625 6.08648437 -2.1953125 5.26171875 C-2 3 -2 3 0 0 Z " fill="#8B8B8B" transform="translate(311,112)"/>
</svg>
